<svg width="219" height="54" viewBox="0 0 219 54" fill="none" xmlns="http://www.w3.org/2000/svg">
<g filter="url(#filter0_d_31_644)">
<rect x="2" y="1" width="215" height="50" rx="25" fill="#FC9688"/>
<path d="M67.3022 13.1088V23.4648H65.9822V13.1088H67.3022ZM65.3822 21.3288H58.7462V20.2488H65.3822V21.3288ZM59.0942 16.3848C59.0942 15.8568 59.2102 15.3888 59.4422 14.9808C59.6822 14.5648 60.0142 14.2408 60.4382 14.0088C60.8622 13.7768 61.3422 13.6608 61.8782 13.6608C62.4302 13.6608 62.9182 13.7768 63.3422 14.0088C63.7662 14.2408 64.0982 14.5648 64.3382 14.9808C64.5782 15.3888 64.6982 15.8568 64.6982 16.3848C64.6982 16.9048 64.5782 17.3728 64.3382 17.7888C64.1062 18.1968 63.7742 18.5168 63.3422 18.7488C62.9182 18.9728 62.4302 19.0848 61.8782 19.0848C61.3422 19.0848 60.8622 18.9728 60.4382 18.7488C60.0142 18.5168 59.6822 18.1968 59.4422 17.7888C59.2102 17.3728 59.0942 16.9048 59.0942 16.3848ZM60.3422 16.3848C60.3422 16.8648 60.4822 17.2528 60.7622 17.5488C61.0502 17.8448 61.4222 17.9928 61.8782 17.9928C62.3502 17.9928 62.7302 17.8448 63.0182 17.5488C63.3142 17.2528 63.4622 16.8648 63.4622 16.3848C63.4622 15.8968 63.3142 15.5048 63.0182 15.2088C62.7302 14.9048 62.3502 14.7528 61.8782 14.7528C61.4222 14.7528 61.0502 14.9048 60.7622 15.2088C60.4822 15.5048 60.3422 15.8968 60.3422 16.3848ZM68.7944 18.2448H78.4664V19.3008H74.4104V21.2448H73.0784V19.3008H68.7944V18.2448ZM71.5664 20.4768V22.5528H77.0864V23.6088H70.2464V20.4768H71.5664ZM69.8024 16.5528L72.4304 15.3288C72.7744 15.1688 72.9624 14.9448 72.9944 14.6568H70.1024V13.5768H77.1464V14.6568H74.2544C74.2864 14.9448 74.4744 15.1688 74.8184 15.3288L77.4464 16.5528L76.9424 17.6088L74.3384 16.3848C74.0744 16.2728 73.8344 16.1088 73.6184 15.8928C73.4504 16.0768 73.2144 16.2408 72.9104 16.3848L70.3064 17.6088L69.8024 16.5528ZM87.9386 13.1088V23.4648H86.6066V13.1088H87.9386ZM82.2026 20.1408C81.6426 20.1408 81.1386 20.0128 80.6906 19.7568C80.2506 19.5008 79.9066 19.1448 79.6586 18.6888C79.4106 18.2248 79.2866 17.7008 79.2866 17.1168C79.2866 16.5248 79.4106 16.0008 79.6586 15.5448C79.9066 15.0808 80.2506 14.7208 80.6906 14.4648C81.1386 14.2008 81.6426 14.0688 82.2026 14.0688C82.7626 14.0688 83.2626 14.2008 83.7026 14.4648C84.1426 14.7208 84.4866 15.0808 84.7346 15.5448C84.9826 16.0008 85.1066 16.5248 85.1066 17.1168C85.1066 17.7008 84.9826 18.2248 84.7346 18.6888C84.4866 19.1448 84.1426 19.5008 83.7026 19.7568C83.2626 20.0128 82.7626 20.1408 82.2026 20.1408ZM82.2026 19.0128C82.6906 19.0128 83.0826 18.8408 83.3786 18.4968C83.6746 18.1448 83.8226 17.6848 83.8226 17.1168C83.8226 16.5488 83.6746 16.0888 83.3786 15.7368C83.0826 15.3768 82.6906 15.1968 82.2026 15.1968C81.7146 15.1968 81.3226 15.3768 81.0266 15.7368C80.7306 16.0888 80.5826 16.5488 80.5826 17.1168C80.5826 17.6848 80.7306 18.1448 81.0266 18.4968C81.3226 18.8408 81.7146 19.0128 82.2026 19.0128ZM95.8989 21.4608H89.6349V20.4048H92.1189V18.9408C91.4629 18.8208 90.9389 18.5288 90.5469 18.0648C90.1549 17.5928 89.9589 17.0208 89.9589 16.3488C89.9589 15.8368 90.0749 15.3808 90.3069 14.9808C90.5469 14.5728 90.8749 14.2568 91.2909 14.0328C91.7149 13.8008 92.1949 13.6848 92.7309 13.6848C93.2749 13.6848 93.7589 13.8008 94.1829 14.0328C94.6069 14.2568 94.9349 14.5728 95.1669 14.9808C95.4069 15.3808 95.5269 15.8368 95.5269 16.3488C95.5269 17.0128 95.3349 17.5768 94.9509 18.0408C94.5669 18.4968 94.0589 18.7928 93.4269 18.9288V20.4048H95.8989V21.4608ZM92.7309 17.8968C93.1869 17.8968 93.5549 17.7568 93.8349 17.4768C94.1149 17.1888 94.2549 16.8128 94.2549 16.3488C94.2549 15.8848 94.1149 15.5088 93.8349 15.2208C93.5549 14.9328 93.1869 14.7888 92.7309 14.7888C92.2829 14.7888 91.9229 14.9328 91.6509 15.2208C91.3789 15.5088 91.2429 15.8848 91.2429 16.3488C91.2429 16.8128 91.3789 17.1888 91.6509 17.4768C91.9229 17.7568 92.2829 17.8968 92.7309 17.8968ZM96.4749 13.1208H97.7829V17.3928H99.3069V18.4848H97.7829V23.4408H96.4749V13.1208ZM106.709 21.0528V18.9528H108.017V21.0528H112.217V22.1328H102.545V21.0528H106.709ZM103.205 18.4848L105.989 16.2768C106.277 16.0848 106.465 15.9128 106.553 15.7608C106.649 15.6008 106.697 15.4208 106.697 15.2208V13.8528H108.077V15.2208C108.077 15.3888 108.125 15.5528 108.221 15.7128C108.317 15.8728 108.509 16.0648 108.797 16.2888L111.569 18.4848L110.825 19.4448L108.053 17.2488C107.765 17.0088 107.549 16.8088 107.405 16.6488C107.229 16.8568 106.997 17.0608 106.709 17.2608L103.949 19.4448L103.205 18.4848ZM121.749 13.1328V20.4528H120.417V18.1128H117.873C117.625 18.3608 117.329 18.5528 116.985 18.6888C116.641 18.8168 116.265 18.8808 115.857 18.8808C115.321 18.8808 114.841 18.7688 114.417 18.5448C114.001 18.3208 113.673 18.0088 113.433 17.6088C113.201 17.2088 113.085 16.7528 113.085 16.2408C113.085 15.7288 113.201 15.2728 113.433 14.8728C113.673 14.4648 114.001 14.1488 114.417 13.9248C114.841 13.7008 115.321 13.5888 115.857 13.5888C116.313 13.5888 116.729 13.6728 117.105 13.8408C117.481 14.0088 117.789 14.2408 118.029 14.5368H120.417V13.1328H121.749ZM116.337 20.1168V22.5408H121.821V23.5968H115.017V20.1168H116.337ZM115.857 17.8008C116.297 17.8008 116.649 17.6568 116.913 17.3688C117.185 17.0808 117.321 16.7048 117.321 16.2408C117.321 15.7688 117.185 15.3888 116.913 15.1008C116.649 14.8128 116.297 14.6688 115.857 14.6688C115.409 14.6688 115.049 14.8128 114.777 15.1008C114.505 15.3888 114.369 15.7688 114.369 16.2408C114.369 16.7048 114.505 17.0808 114.777 17.3688C115.057 17.6568 115.417 17.8008 115.857 17.8008ZM120.417 17.0568V15.6048H118.533C118.581 15.8048 118.605 16.0168 118.605 16.2408C118.605 16.5448 118.565 16.8168 118.485 17.0568H120.417ZM132.001 13.1088V23.4648H130.669V13.1088H132.001ZM126.265 20.1408C125.705 20.1408 125.201 20.0128 124.753 19.7568C124.313 19.5008 123.969 19.1448 123.721 18.6888C123.473 18.2248 123.349 17.7008 123.349 17.1168C123.349 16.5248 123.473 16.0008 123.721 15.5448C123.969 15.0808 124.313 14.7208 124.753 14.4648C125.201 14.2008 125.705 14.0688 126.265 14.0688C126.825 14.0688 127.325 14.2008 127.765 14.4648C128.205 14.7208 128.549 15.0808 128.797 15.5448C129.045 16.0008 129.169 16.5248 129.169 17.1168C129.169 17.7008 129.045 18.2248 128.797 18.6888C128.549 19.1448 128.205 19.5008 127.765 19.7568C127.325 20.0128 126.825 20.1408 126.265 20.1408ZM126.265 19.0128C126.753 19.0128 127.145 18.8408 127.441 18.4968C127.737 18.1448 127.885 17.6848 127.885 17.1168C127.885 16.5488 127.737 16.0888 127.441 15.7368C127.145 15.3768 126.753 15.1968 126.265 15.1968C125.777 15.1968 125.385 15.3768 125.089 15.7368C124.793 16.0888 124.645 16.5488 124.645 17.1168C124.645 17.6848 124.793 18.1448 125.089 18.4968C125.385 18.8408 125.777 19.0128 126.265 19.0128ZM142.697 13.1208V23.4408H141.437V13.1208H142.697ZM140.573 13.3248V22.9368H139.337V17.7048H138.581C138.469 18.4408 138.185 19.0328 137.729 19.4808C137.281 19.9208 136.725 20.1408 136.061 20.1408C135.573 20.1408 135.137 20.0128 134.753 19.7568C134.369 19.5008 134.069 19.1448 133.853 18.6888C133.637 18.2248 133.529 17.7008 133.529 17.1168C133.529 16.5248 133.637 16.0008 133.853 15.5448C134.069 15.0808 134.369 14.7208 134.753 14.4648C135.137 14.2008 135.573 14.0688 136.061 14.0688C136.733 14.0688 137.301 14.3048 137.765 14.7768C138.229 15.2488 138.505 15.8688 138.593 16.6368H139.337V13.3248H140.573ZM136.061 18.9648C136.453 18.9648 136.769 18.7968 137.009 18.4608C137.257 18.1168 137.381 17.6688 137.381 17.1168C137.381 16.5568 137.257 16.1048 137.009 15.7608C136.769 15.4168 136.453 15.2448 136.061 15.2448C135.677 15.2448 135.365 15.4168 135.125 15.7608C134.885 16.1048 134.765 16.5568 134.765 17.1168C134.765 17.6688 134.885 18.1168 135.125 18.4608C135.365 18.7968 135.677 18.9648 136.061 18.9648ZM152.986 13.1208V23.4408H151.726V13.1208H152.986ZM150.718 13.3728V22.9368H149.482V17.9328H147.838C147.486 18.6608 147.006 19.2608 146.398 19.7328C145.79 20.2048 145.11 20.5608 144.358 20.8008L143.986 19.6008C144.962 19.2888 145.738 18.7888 146.314 18.1008C146.898 17.4048 147.19 16.4048 147.19 15.1008H144.358V14.0328H148.438V15.1008C148.438 15.7568 148.366 16.3488 148.222 16.8768H149.482V13.3728H150.718ZM46.3819 36.3408H40.7899V35.2968H43.5739V34.2768H39.4099V33.2208H49.0579V34.2768H44.8939V35.2968H47.6899V38.7888H46.3819V36.3408ZM40.4659 31.7808L43.0339 30.4968C43.3299 30.3368 43.5099 30.1608 43.5739 29.9688H40.8019V28.8888H43.5979V27.9888H44.9059V28.8888H47.7019V29.9688H44.9299C44.9859 30.1528 45.1659 30.3288 45.4699 30.4968L48.0379 31.7808L47.5099 32.8128L44.9419 31.5048C44.7099 31.3848 44.4779 31.2168 44.2459 31.0008C44.0699 31.1928 43.8419 31.3608 43.5619 31.5048L40.9939 32.8128L40.4659 31.7808ZM58.0502 28.1328V32.3808H59.6702V33.4728H58.0502V38.4528H56.7302V28.1328H58.0502ZM52.2062 29.4768V28.3248H53.5142V29.4768H55.8422V30.5328H49.8662V29.4768H52.2062ZM52.8542 36.0048C52.3502 36.0048 51.9022 35.9008 51.5102 35.6928C51.1182 35.4768 50.8102 35.1768 50.5862 34.7928C50.3702 34.4088 50.2622 33.9728 50.2622 33.4848C50.2622 32.9968 50.3702 32.5608 50.5862 32.1768C50.8102 31.7848 51.1182 31.4808 51.5102 31.2648C51.9022 31.0488 52.3502 30.9408 52.8542 30.9408C53.3582 30.9408 53.8062 31.0488 54.1982 31.2648C54.5982 31.4808 54.9062 31.7848 55.1222 32.1768C55.3462 32.5608 55.4582 32.9968 55.4582 33.4848C55.4582 33.9728 55.3462 34.4088 55.1222 34.7928C54.9062 35.1768 54.5982 35.4768 54.1982 35.6928C53.8062 35.9008 53.3582 36.0048 52.8542 36.0048ZM52.8542 34.9128C53.2542 34.9128 53.5742 34.7808 53.8142 34.5168C54.0622 34.2528 54.1862 33.9088 54.1862 33.4848C54.1862 33.0528 54.0622 32.7048 53.8142 32.4408C53.5742 32.1768 53.2542 32.0448 52.8542 32.0448C52.4542 32.0448 52.1302 32.1768 51.8822 32.4408C51.6422 32.7048 51.5222 33.0528 51.5222 33.4848C51.5222 33.9088 51.6462 34.2528 51.8942 34.5168C52.1422 34.7808 52.4622 34.9128 52.8542 34.9128ZM68.8784 28.1088V38.4648H67.5584V28.1088H68.8784ZM66.9584 36.3288H60.3224V35.2488H66.9584V36.3288ZM60.6704 31.3848C60.6704 30.8568 60.7864 30.3888 61.0184 29.9808C61.2584 29.5648 61.5904 29.2408 62.0144 29.0088C62.4384 28.7768 62.9184 28.6608 63.4544 28.6608C64.0064 28.6608 64.4944 28.7768 64.9184 29.0088C65.3424 29.2408 65.6744 29.5648 65.9144 29.9808C66.1544 30.3888 66.2744 30.8568 66.2744 31.3848C66.2744 31.9048 66.1544 32.3728 65.9144 32.7888C65.6824 33.1968 65.3504 33.5168 64.9184 33.7488C64.4944 33.9728 64.0064 34.0848 63.4544 34.0848C62.9184 34.0848 62.4384 33.9728 62.0144 33.7488C61.5904 33.5168 61.2584 33.1968 61.0184 32.7888C60.7864 32.3728 60.6704 31.9048 60.6704 31.3848ZM61.9184 31.3848C61.9184 31.8648 62.0584 32.2528 62.3384 32.5488C62.6264 32.8448 62.9984 32.9928 63.4544 32.9928C63.9264 32.9928 64.3064 32.8448 64.5944 32.5488C64.8904 32.2528 65.0384 31.8648 65.0384 31.3848C65.0384 30.8968 64.8904 30.5048 64.5944 30.2088C64.3064 29.9048 63.9264 29.7528 63.4544 29.7528C62.9984 29.7528 62.6264 29.9048 62.3384 30.2088C62.0584 30.5048 61.9184 30.8968 61.9184 31.3848ZM73.5802 29.0328H77.7442V31.9248H78.8722V28.3248H80.1082V37.9368H78.8722V32.9928H77.7442V35.6088H73.5802V29.0328ZM76.5202 34.5648V30.0888H74.8042V34.5648H76.5202ZM81.0202 28.1208H82.2802V38.4408H81.0202V28.1208ZM89.1724 31.4448V28.3248H90.3964V37.9368H89.1724V32.5248H87.6724V31.4448H89.1724ZM92.6044 28.1208V38.4408H91.3444V28.1208H92.6044ZM83.3884 35.2488L84.9604 32.5848C85.1444 32.2888 85.2644 32.0248 85.3204 31.7928C85.3844 31.5608 85.4164 31.2968 85.4164 31.0008V28.8168H86.6884V31.0008C86.6884 31.2968 86.7164 31.5608 86.7724 31.7928C86.8364 32.0248 86.9604 32.2888 87.1444 32.5848L88.7284 35.2488L87.6724 35.8728L86.0884 33.2088L86.0524 33.1488L86.0164 33.2088L84.4444 35.8728L83.3884 35.2488ZM102.665 28.1328V38.4528H101.333V28.1328H102.665ZM93.9047 35.1168L95.8367 32.2968C96.0607 31.9688 96.2087 31.7048 96.2807 31.5048C96.3607 31.2968 96.4007 31.0648 96.4007 30.8088V30.1248H94.3127V29.0448H99.7847V30.1248H97.6967V30.8088C97.6967 31.0648 97.7327 31.2968 97.8047 31.5048C97.8847 31.7128 98.0327 31.9768 98.2487 32.2968L100.181 35.1168L99.1727 35.8128L97.2407 32.9928L97.0367 32.6928L96.8447 32.9928L94.9127 35.8128L93.9047 35.1168ZM113.595 37.9248L112.863 37.1208C112.127 37.7848 111.303 38.1168 110.391 38.1168C109.567 38.1168 108.935 37.9448 108.495 37.6008C108.063 37.2488 107.783 36.8768 107.655 36.4848C107.527 36.0848 107.463 35.7568 107.463 35.5008C107.463 35.3248 107.499 35.0928 107.571 34.8048C107.643 34.5168 107.787 34.2008 108.003 33.8568C108.227 33.5128 108.543 33.2088 108.951 32.9448C108.679 32.6648 108.467 32.3928 108.315 32.1288C108.163 31.8648 108.087 31.5488 108.087 31.1808C108.087 30.8608 108.175 30.5328 108.351 30.1968C108.527 29.8528 108.787 29.5688 109.131 29.3448C109.483 29.1128 109.903 28.9968 110.391 28.9968C110.871 28.9968 111.287 29.1088 111.639 29.3328C111.991 29.5488 112.259 29.8288 112.443 30.1728C112.635 30.5088 112.73 30.8448 112.73 31.1808C112.73 31.6128 112.599 31.9968 112.335 32.3328C112.071 32.6688 111.675 32.9888 111.147 33.2928L112.815 35.1288C112.983 34.8648 113.223 34.4408 113.535 33.8568L114.687 34.4928C114.327 35.2048 114.011 35.7488 113.739 36.1248L115.407 37.9248H113.595ZM108.783 35.5008C108.783 35.7888 108.887 36.0768 109.095 36.3648C109.311 36.6528 109.743 36.7968 110.391 36.7968C110.959 36.7968 111.483 36.5848 111.963 36.1608L109.911 33.9168C109.471 34.1408 109.171 34.4088 109.011 34.7208C108.859 35.0248 108.783 35.2848 108.783 35.5008ZM109.407 31.1808C109.407 31.3328 109.451 31.4688 109.539 31.5888C109.627 31.7088 109.779 31.8768 109.995 32.0928L110.223 32.3088C110.663 32.0928 110.971 31.9048 111.147 31.7448C111.323 31.5768 111.411 31.3888 111.411 31.1808C111.411 30.9408 111.323 30.7368 111.147 30.5688C110.979 30.4008 110.727 30.3168 110.391 30.3168C110.047 30.3168 109.795 30.4008 109.635 30.5688C109.483 30.7368 109.407 30.9408 109.407 31.1808ZM127.155 28.1328V32.3208H128.787V33.4248H127.155V38.4528H125.835V28.1328H127.155ZM118.683 35.2848L120.639 32.5488C120.855 32.2368 121.003 31.9688 121.083 31.7448C121.163 31.5128 121.203 31.2648 121.203 31.0008V28.8168H122.487V31.0008C122.487 31.2728 122.523 31.5248 122.595 31.7568C122.675 31.9808 122.823 32.2448 123.039 32.5488L124.995 35.2848L124.011 35.9808L122.055 33.2448L121.839 32.9208L121.623 33.2448L119.667 35.9808L118.683 35.2848ZM137.996 28.1328V35.4408H136.664V28.1328H137.996ZM132.536 35.1048V37.5408H138.104V38.5968H131.228V35.1048H132.536ZM129.584 33.2808L131.456 31.2528C131.632 31.0528 131.752 30.8688 131.816 30.7008C131.88 30.5328 131.912 30.3568 131.912 30.1728V29.9328H129.824V28.8528H135.164V29.9328H133.172V30.1728C133.172 30.3648 133.204 30.5448 133.268 30.7128C133.332 30.8728 133.456 31.0528 133.64 31.2528L135.5 33.2808L134.612 34.0968L132.728 32.0688L132.536 31.8408L132.344 32.0688L130.472 34.0968L129.584 33.2808ZM146.429 36.0768V34.2048H143.645V28.7568H144.953V30.4368H149.237V28.7568H150.533V34.2048H147.749V36.0768H151.937V37.1568H142.265V36.0768H146.429ZM144.953 33.1608H149.237V31.4808H144.953V33.1608ZM161.686 28.1208V38.4408H160.438V33.4008H159.262V37.9128H158.038V28.3368H159.262V32.3328H160.438V28.1208H161.686ZM157.258 35.7408H153.058V29.0328H154.366V34.6248H157.258V35.7408ZM171.746 28.1208V38.4408H170.426V28.1208H171.746ZM168.662 30.0528V30.1128C168.654 31.1608 168.414 32.0688 167.942 32.8368C167.478 33.6048 166.874 34.2288 166.13 34.7088C165.394 35.1808 164.586 35.5328 163.706 35.7648L163.406 34.5528C164.598 34.2408 165.558 33.7288 166.286 33.0168C167.022 32.3048 167.394 31.3368 167.402 30.1128H163.706V29.0328H168.662V30.0528Z" fill="#24211C"/>
</g>
<defs>
<filter id="filter0_d_31_644" x="0" y="0" width="219" height="54" filterUnits="userSpaceOnUse" color-interpolation-filters="sRGB">
<feFlood flood-opacity="0" result="BackgroundImageFix"/>
<feColorMatrix in="SourceAlpha" type="matrix" values="0 0 0 0 0 0 0 0 0 0 0 0 0 0 0 0 0 0 127 0" result="hardAlpha"/>
<feOffset dy="1"/>
<feGaussianBlur stdDeviation="1"/>
<feComposite in2="hardAlpha" operator="out"/>
<feColorMatrix type="matrix" values="0 0 0 0 0 0 0 0 0 0 0 0 0 0 0 0 0 0 0.25 0"/>
<feBlend mode="normal" in2="BackgroundImageFix" result="effect1_dropShadow_31_644"/>
<feBlend mode="normal" in="SourceGraphic" in2="effect1_dropShadow_31_644" result="shape"/>
</filter>
</defs>
</svg>
