<svg width="219" height="44" viewBox="0 0 219 44" fill="none" xmlns="http://www.w3.org/2000/svg">
<g filter="url(#filter0_d_19_24)">
<rect x="2" y="1" width="215" height="39.7924" rx="19.8962" fill="#D6D873"/>
<path d="M173 18.301H187L180.707 23.7448C180.52 23.907 180.265 23.9981 180 23.9981C179.735 23.9981 179.481 23.907 179.293 23.7448L173 18.301Z" fill="#8E474B"/>
<path d="M80.2944 16.1328H81.6144V23.5488H80.2944V16.1328ZM76.2384 23.0568V25.5408H81.6744V26.5968H74.9184V23.0568H76.2384ZM73.1424 21.3888L74.9424 19.1808C75.1184 18.9568 75.2384 18.7568 75.3024 18.5808C75.3744 18.3968 75.4104 18.2128 75.4104 18.0288V16.6368H76.6944V18.0288C76.6944 18.2208 76.7264 18.4048 76.7904 18.5808C76.8544 18.7568 76.9784 18.9568 77.1624 19.1808L78.9624 21.3888L78.0264 22.1568L76.2264 19.9488L76.0464 19.7208L75.8784 19.9488L74.0784 22.1568L73.1424 21.3888ZM92.8026 22.3608V23.4048H88.6026V26.8128H87.2946V23.4048H83.1306V22.3608H92.8026ZM85.9026 16.5528V17.7888H90.0186V16.5528H91.3146V21.1728H84.5946V16.5528H85.9026ZM85.9026 20.1048H90.0186V18.8328H85.9026V20.1048ZM100.427 24.4128H94.8349V23.3688H101.735V26.8128H100.427V24.4128ZM93.4549 21.4008H103.103V22.4568H93.4549V21.4008ZM94.5109 19.7928L97.0909 18.4848C97.3869 18.3488 97.5629 18.1768 97.6189 17.9688H94.8469V16.8888H97.6429V15.9888H98.9509V16.8888H101.747V17.9688H98.9749C99.0309 18.1528 99.2109 18.3288 99.5149 18.4968L102.083 19.7928L101.555 20.8248L98.9869 19.5048C98.7069 19.3528 98.4789 19.1888 98.3029 19.0128C98.1349 19.1888 97.8989 19.3568 97.5949 19.5168L95.0389 20.8248L94.5109 19.7928ZM112.245 21.4008V19.7808H110.937C110.681 20.8288 110.201 21.6888 109.497 22.3608C108.793 23.0248 107.981 23.5048 107.061 23.8008L106.689 22.6008C108.817 21.9208 109.885 20.4208 109.893 18.1008H107.061V17.0328H111.141V18.0648V18.1008C111.141 18.2528 111.133 18.4648 111.117 18.7368H112.245V16.3728H113.481V25.9368H112.245V22.4568H110.589V21.4008H112.245ZM115.677 16.1208V26.4408H114.429V16.1208H115.677ZM120.781 21.6528V23.2728H123.313V24.3288H116.905V23.2728H119.461V21.6528H120.781ZM125.197 16.1208V20.4168H126.721V21.5208H125.197V26.4408H123.889V16.1208H125.197ZM117.037 21.1728L118.945 19.1568C119.129 18.9648 119.253 18.7968 119.317 18.6528C119.389 18.5088 119.425 18.3688 119.425 18.2328V17.9808H117.241V16.9008H122.917V17.9808H120.721V18.2328C120.721 18.3688 120.757 18.5088 120.829 18.6528C120.901 18.7888 121.029 18.9568 121.213 19.1568L123.121 21.1728L122.233 22.0128L120.325 19.9968L120.085 19.7208L119.833 19.9968L117.925 22.0128L117.037 21.1728ZM127.769 16.7448H129.077V18.4488H131.441V16.7448H132.737V18.8328H134.741V16.1328H136.073V23.4408H134.741V19.9008H132.737V22.0248H127.769V16.7448ZM130.697 23.1048V25.5408H136.169V26.5968H129.377V23.1048H130.697ZM131.441 20.9688V19.4688H129.077V20.9688H131.441ZM137.517 24.1608H141.681V22.9368C140.977 22.8168 140.413 22.5128 139.989 22.0248C139.565 21.5288 139.349 20.9248 139.341 20.2128C139.341 19.5648 139.581 18.9808 140.061 18.4608H138.513V17.3808H141.705V16.1088H142.977V17.3808H146.169V18.4608H144.633C145.121 18.9728 145.365 19.5568 145.365 20.2128C145.365 20.9168 145.149 21.5168 144.717 22.0128C144.285 22.5008 143.713 22.8088 143.001 22.9368V24.1608H147.189V25.2288H137.517V24.1608ZM142.329 21.9048C142.849 21.9048 143.269 21.7528 143.589 21.4488C143.917 21.1368 144.081 20.7248 144.081 20.2128C144.081 19.7008 143.917 19.2848 143.589 18.9648C143.269 18.6448 142.849 18.4848 142.329 18.4848C141.825 18.4848 141.417 18.6448 141.105 18.9648C140.801 19.2768 140.649 19.6928 140.649 20.2128C140.649 20.7248 140.801 21.1368 141.105 21.4488C141.417 21.7528 141.825 21.9048 142.329 21.9048Z" fill="#8E474B"/>
</g>
<defs>
<filter id="filter0_d_19_24" x="0" y="0" width="219" height="43.7925" filterUnits="userSpaceOnUse" color-interpolation-filters="sRGB">
<feFlood flood-opacity="0" result="BackgroundImageFix"/>
<feColorMatrix in="SourceAlpha" type="matrix" values="0 0 0 0 0 0 0 0 0 0 0 0 0 0 0 0 0 0 127 0" result="hardAlpha"/>
<feOffset dy="1"/>
<feGaussianBlur stdDeviation="1"/>
<feComposite in2="hardAlpha" operator="out"/>
<feColorMatrix type="matrix" values="0 0 0 0 0 0 0 0 0 0 0 0 0 0 0 0 0 0 0.25 0"/>
<feBlend mode="normal" in2="BackgroundImageFix" result="effect1_dropShadow_19_24"/>
<feBlend mode="normal" in="SourceGraphic" in2="effect1_dropShadow_19_24" result="shape"/>
</filter>
</defs>
</svg>
