<svg width="219" height="44" viewBox="0 0 219 44" fill="none" xmlns="http://www.w3.org/2000/svg">
<g filter="url(#filter0_d_19_23)">
<rect x="2" y="1" width="215" height="39.7924" rx="19.8962" fill="#D6D873"/>
<path d="M173 18.301H187L180.707 23.7448C180.52 23.907 180.265 23.9981 180 23.9981C179.735 23.9981 179.481 23.907 179.293 23.7448L173 18.301Z" fill="#3B4F8E"/>
<path d="M79.2944 17.1328H80.6144V24.5488H79.2944V17.1328ZM75.2384 24.0568V26.5408H80.6744V27.5968H73.9184V24.0568H75.2384ZM72.1424 22.3888L73.9424 20.1808C74.1184 19.9568 74.2384 19.7568 74.3024 19.5808C74.3744 19.3968 74.4104 19.2128 74.4104 19.0288V17.6368H75.6944V19.0288C75.6944 19.2208 75.7264 19.4048 75.7904 19.5808C75.8544 19.7568 75.9784 19.9568 76.1624 20.1808L77.9624 22.3888L77.0264 23.1568L75.2264 20.9488L75.0464 20.7208L74.8784 20.9488L73.0784 23.1568L72.1424 22.3888ZM87.3386 28.0288C86.8106 28.0288 86.3386 27.9288 85.9226 27.7288C85.5146 27.5368 85.1946 27.2648 84.9626 26.9128C84.7386 26.5608 84.6266 26.1648 84.6266 25.7248C84.6266 25.2768 84.7386 24.8768 84.9626 24.5248C85.1946 24.1728 85.5146 23.9008 85.9226 23.7088C86.3386 23.5088 86.8106 23.4088 87.3386 23.4088C87.8666 23.4088 88.3386 23.5088 88.7546 23.7088C89.1706 23.9008 89.4946 24.1728 89.7266 24.5248C89.9586 24.8768 90.0746 25.2768 90.0746 25.7248C90.0746 26.1648 89.9586 26.5608 89.7266 26.9128C89.4946 27.2648 89.1706 27.5368 88.7546 27.7288C88.3386 27.9288 87.8666 28.0288 87.3386 28.0288ZM85.9946 19.6528V18.7168H82.6466V17.6488H87.3026V20.6728H83.9666V21.6328H87.9386V22.7128H82.6466V19.6528H85.9946ZM87.3386 26.9608C87.7706 26.9608 88.1186 26.8488 88.3826 26.6248C88.6466 26.3928 88.7786 26.0928 88.7786 25.7248C88.7786 25.3568 88.6466 25.0608 88.3826 24.8368C88.1186 24.6048 87.7706 24.4888 87.3386 24.4888C86.9146 24.4888 86.5706 24.6048 86.3066 24.8368C86.0426 25.0608 85.9106 25.3568 85.9106 25.7248C85.9106 26.0928 86.0426 26.3928 86.3066 26.6248C86.5706 26.8488 86.9146 26.9608 87.3386 26.9608ZM89.1746 17.1208H90.4946V19.6888H91.9826V20.7688H90.4946V23.3848H89.1746V17.1208ZM99.4269 25.4128H93.8349V24.3688H100.735V27.8128H99.4269V25.4128ZM92.4549 22.4008H102.103V23.4568H92.4549V22.4008ZM93.5109 20.7928L96.0909 19.4848C96.3869 19.3488 96.5629 19.1768 96.6189 18.9688H93.8469V17.8888H96.6429V16.9888H97.9509V17.8888H100.747V18.9688H97.9749C98.0309 19.1528 98.2109 19.3288 98.5149 19.4968L101.083 20.7928L100.555 21.8248L97.9869 20.5048C97.7069 20.3528 97.4789 20.1888 97.3029 20.0128C97.1349 20.1888 96.8989 20.3568 96.5949 20.5168L94.0389 21.8248L93.5109 20.7928ZM111.245 22.4008V20.7808H109.937C109.681 21.8288 109.201 22.6888 108.497 23.3608C107.793 24.0248 106.981 24.5048 106.061 24.8008L105.689 23.6008C107.817 22.9208 108.885 21.4208 108.893 19.1008H106.061V18.0328H110.141V19.0648V19.1008C110.141 19.2528 110.133 19.4648 110.117 19.7368H111.245V17.3728H112.481V26.9368H111.245V23.4568H109.589V22.4008H111.245ZM114.677 17.1208V27.4408H113.429V17.1208H114.677ZM119.781 22.6528V24.2728H122.313V25.3288H115.905V24.2728H118.461V22.6528H119.781ZM124.197 17.1208V21.4168H125.721V22.5208H124.197V27.4408H122.889V17.1208H124.197ZM116.037 22.1728L117.945 20.1568C118.129 19.9648 118.253 19.7968 118.317 19.6528C118.389 19.5088 118.425 19.3688 118.425 19.2328V18.9808H116.241V17.9008H121.917V18.9808H119.721V19.2328C119.721 19.3688 119.757 19.5088 119.829 19.6528C119.901 19.7888 120.029 19.9568 120.213 20.1568L122.121 22.1728L121.233 23.0128L119.325 20.9968L119.085 20.7208L118.833 20.9968L116.925 23.0128L116.037 22.1728ZM126.769 17.7448H128.077V19.4488H130.441V17.7448H131.737V19.8328H133.741V17.1328H135.073V24.4408H133.741V20.9008H131.737V23.0248H126.769V17.7448ZM129.697 24.1048V26.5408H135.169V27.5968H128.377V24.1048H129.697ZM130.441 21.9688V20.4688H128.077V21.9688H130.441ZM136.517 25.1608H140.681V23.9368C139.977 23.8168 139.413 23.5128 138.989 23.0248C138.565 22.5288 138.349 21.9248 138.341 21.2128C138.341 20.5648 138.581 19.9808 139.061 19.4608H137.513V18.3808H140.705V17.1088H141.977V18.3808H145.169V19.4608H143.633C144.121 19.9728 144.365 20.5568 144.365 21.2128C144.365 21.9168 144.149 22.5168 143.717 23.0128C143.285 23.5008 142.713 23.8088 142.001 23.9368V25.1608H146.189V26.2288H136.517V25.1608ZM141.329 22.9048C141.849 22.9048 142.269 22.7528 142.589 22.4488C142.917 22.1368 143.081 21.7248 143.081 21.2128C143.081 20.7008 142.917 20.2848 142.589 19.9648C142.269 19.6448 141.849 19.4848 141.329 19.4848C140.825 19.4848 140.417 19.6448 140.105 19.9648C139.801 20.2768 139.649 20.6928 139.649 21.2128C139.649 21.7248 139.801 22.1368 140.105 22.4488C140.417 22.7528 140.825 22.9048 141.329 22.9048Z" fill="#3B4F8E"/>
</g>
<defs>
<filter id="filter0_d_19_23" x="0" y="0" width="219" height="43.7925" filterUnits="userSpaceOnUse" color-interpolation-filters="sRGB">
<feFlood flood-opacity="0" result="BackgroundImageFix"/>
<feColorMatrix in="SourceAlpha" type="matrix" values="0 0 0 0 0 0 0 0 0 0 0 0 0 0 0 0 0 0 127 0" result="hardAlpha"/>
<feOffset dy="1"/>
<feGaussianBlur stdDeviation="1"/>
<feComposite in2="hardAlpha" operator="out"/>
<feColorMatrix type="matrix" values="0 0 0 0 0 0 0 0 0 0 0 0 0 0 0 0 0 0 0.25 0"/>
<feBlend mode="normal" in2="BackgroundImageFix" result="effect1_dropShadow_19_23"/>
<feBlend mode="normal" in="SourceGraphic" in2="effect1_dropShadow_19_23" result="shape"/>
</filter>
</defs>
</svg>
