<svg width="219" height="44" viewBox="0 0 219 44" fill="none" xmlns="http://www.w3.org/2000/svg">
<g filter="url(#filter0_d_12_54)">
<rect x="2" y="1" width="215" height="39.7924" rx="19.8962" fill="#D6D873"/>
<path d="M107.218 17.292V24.612H105.886V22.272H103.342C103.094 22.52 102.798 22.712 102.454 22.848C102.11 22.976 101.734 23.04 101.326 23.04C100.79 23.04 100.31 22.928 99.8857 22.704C99.4697 22.48 99.1417 22.168 98.9017 21.768C98.6697 21.368 98.5537 20.912 98.5537 20.4C98.5537 19.888 98.6697 19.432 98.9017 19.032C99.1417 18.624 99.4697 18.308 99.8857 18.084C100.31 17.86 100.79 17.748 101.326 17.748C101.782 17.748 102.198 17.832 102.574 18C102.95 18.168 103.258 18.4 103.498 18.696H105.886V17.292H107.218ZM101.806 24.276V26.7H107.29V27.756H100.486V24.276H101.806ZM101.326 21.96C101.766 21.96 102.118 21.816 102.382 21.528C102.654 21.24 102.79 20.864 102.79 20.4C102.79 19.928 102.654 19.548 102.382 19.26C102.118 18.972 101.766 18.828 101.326 18.828C100.878 18.828 100.518 18.972 100.246 19.26C99.9737 19.548 99.8377 19.928 99.8377 20.4C99.8377 20.864 99.9737 21.24 100.246 21.528C100.526 21.816 100.886 21.96 101.326 21.96ZM105.886 21.216V19.764H104.002C104.05 19.964 104.074 20.176 104.074 20.4C104.074 20.704 104.034 20.976 103.954 21.216H105.886ZM115.706 25.284H110.402V24.228H117.026V27.972H115.706V25.284ZM114.482 23.028H109.178V19.884H112.526V18.888H109.178V17.808H113.834V20.904H110.498V21.948H114.482V23.028ZM115.706 17.292H117.026V19.908H118.514V21H117.026V23.712H115.706V17.292ZM127.866 17.268V27.624H126.558V22.08H124.566V21H126.558V17.268H127.866ZM118.986 24.216L120.978 21.876C121.186 21.628 121.326 21.412 121.398 21.228C121.478 21.036 121.518 20.832 121.518 20.616V20.052H119.346V18.972H121.518V17.544H122.79V18.972H124.926V20.052H122.766V20.616C122.766 20.832 122.802 21.036 122.874 21.228C122.946 21.412 123.086 21.628 123.294 21.876L125.286 24.216L124.35 25.008L122.358 22.668L122.142 22.38L121.914 22.668L119.922 25.008L118.986 24.216Z" fill="#24211C"/>
<g clip-path="url(#clip0_12_54)">
<path d="M88.3386 21.3533L90.949 23.9638L89.6278 25.285C89.3975 25.5143 89.124 25.6956 88.8231 25.8184C88.5221 25.9411 88.1998 26.0028 87.8749 26C84.8549 26 80.9999 22.145 80.9999 19.125C80.9972 18.8 81.0591 18.4777 81.1818 18.1767C81.3045 17.8758 81.4857 17.6021 81.7149 17.3717L83.0361 16.0508L85.6465 18.6612L83.9278 20.38C84.4388 21.5943 85.4034 22.5612 86.6165 23.075L88.3386 21.3533ZM90.1665 20.1667H90.9999C90.9987 19.062 90.5593 18.0029 89.7781 17.2217C88.997 16.4406 87.9379 16.0012 86.8332 16V16.8333C87.717 16.8343 88.5642 17.1858 89.1891 17.8107C89.814 18.4356 90.1655 19.2829 90.1665 20.1667ZM88.4999 20.1667H89.3332C89.3325 19.5038 89.0689 18.8683 88.6002 18.3996C88.1315 17.9309 87.496 17.6673 86.8332 17.6667V18.5C87.2752 18.5 87.6992 18.6756 88.0117 18.9882C88.3243 19.3007 88.4999 19.7246 88.4999 20.1667Z" fill="#24211C"/>
</g>
</g>
<path d="M173 18.3011H187L180.707 23.7449C180.52 23.9071 180.265 23.9982 180 23.9982C179.735 23.9982 179.481 23.9071 179.293 23.7449L173 18.3011Z" fill="#24211C"/>
<defs>
<filter id="filter0_d_12_54" x="0" y="0" width="219" height="43.7924" filterUnits="userSpaceOnUse" color-interpolation-filters="sRGB">
<feFlood flood-opacity="0" result="BackgroundImageFix"/>
<feColorMatrix in="SourceAlpha" type="matrix" values="0 0 0 0 0 0 0 0 0 0 0 0 0 0 0 0 0 0 127 0" result="hardAlpha"/>
<feOffset dy="1"/>
<feGaussianBlur stdDeviation="1"/>
<feComposite in2="hardAlpha" operator="out"/>
<feColorMatrix type="matrix" values="0 0 0 0 0 0 0 0 0 0 0 0 0 0 0 0 0 0 0.25 0"/>
<feBlend mode="normal" in2="BackgroundImageFix" result="effect1_dropShadow_12_54"/>
<feBlend mode="normal" in="SourceGraphic" in2="effect1_dropShadow_12_54" result="shape"/>
</filter>
<clipPath id="clip0_12_54">
<rect width="10" height="10" fill="white" transform="translate(81 16)"/>
</clipPath>
</defs>
</svg>
