<svg width="48" height="24" viewBox="0 0 48 24" fill="none" xmlns="http://www.w3.org/2000/svg">
<g filter="url(#filter0_d_57_206)">
<rect x="2" y="1" width="44" height="20" rx="5" fill="#3B4F8E"/>
<path d="M18.025 7.5H16V5.008L18.025 7.5ZM15.1667 8.5V5H13.0834C12.7519 5 12.4339 5.15804 12.1995 5.43934C11.9651 5.72064 11.8334 6.10218 11.8334 6.5V14.5H18.0834V8.5H15.1667ZM18.9167 8.505V15.519H13.9167V17H20.1667V10L18.9167 8.505Z" fill="white"/>
<path d="M26.416 12.032V11.232H24.576V8.736H25.256V9.504H28.272V8.736H28.968V11.232H27.104V12.032H29.936V12.6H23.584V12.032H26.416ZM29.008 13.2V15.608H28.32V13.76H24.52V13.2H29.008ZM25.256 10.688H28.272V10.04H25.256V10.688ZM35.8283 8.568V11.392H36.9643V11.984H35.8283V15.368H35.1323V8.568H35.8283ZM30.2923 13.304L31.5963 11.48C31.7457 11.272 31.847 11.0827 31.9003 10.912C31.9537 10.736 31.9803 10.5493 31.9803 10.352V9.032H32.6443V10.352C32.6443 10.5493 32.671 10.736 32.7243 10.912C32.7777 11.0827 32.879 11.272 33.0283 11.48L34.3323 13.304L33.8203 13.672L32.5163 11.848C32.4417 11.7413 32.375 11.6347 32.3163 11.528C32.231 11.6667 32.1617 11.7733 32.1083 11.848L30.8043 13.672L30.2923 13.304Z" fill="white"/>
</g>
<defs>
<filter id="filter0_d_57_206" x="0" y="0" width="48" height="24" filterUnits="userSpaceOnUse" color-interpolation-filters="sRGB">
<feFlood flood-opacity="0" result="BackgroundImageFix"/>
<feColorMatrix in="SourceAlpha" type="matrix" values="0 0 0 0 0 0 0 0 0 0 0 0 0 0 0 0 0 0 127 0" result="hardAlpha"/>
<feOffset dy="1"/>
<feGaussianBlur stdDeviation="1"/>
<feComposite in2="hardAlpha" operator="out"/>
<feColorMatrix type="matrix" values="0 0 0 0 0 0 0 0 0 0 0 0 0 0 0 0 0 0 0.25 0"/>
<feBlend mode="normal" in2="BackgroundImageFix" result="effect1_dropShadow_57_206"/>
<feBlend mode="normal" in="SourceGraphic" in2="effect1_dropShadow_57_206" result="shape"/>
</filter>
</defs>
</svg>
