<svg width="10" height="10" viewBox="0 0 10 10" fill="none" xmlns="http://www.w3.org/2000/svg">
<g clip-path="url(#clip0_4_44)">
<path d="M7.33862 5.35333L9.94903 7.96375L8.62778 9.285C8.39751 9.51432 8.12397 9.69562 7.82306 9.81836C7.52214 9.9411 7.19984 10.0028 6.87487 10C3.85487 10 -0.000132331 6.145 -0.000132331 3.125C-0.00277538 2.79999 0.0590559 2.47769 0.181784 2.17673C0.304512 1.87578 0.485701 1.60214 0.714868 1.37167L2.03612 0.0508333L4.64653 2.66125L2.92778 4.38C3.43875 5.59428 4.40344 6.56121 5.61653 7.075L7.33862 5.35333ZM9.16653 4.16667H9.99987C9.99865 3.06197 9.55928 2.00287 8.77814 1.22173C7.997 0.44059 6.9379 0.00121317 5.8332 0V0.833333C6.71695 0.834326 7.56422 1.18583 8.18913 1.81074C8.81403 2.43565 9.16554 3.28292 9.16653 4.16667ZM7.49987 4.16667H8.3332C8.33254 3.50383 8.06893 2.86833 7.60024 2.39963C7.13154 1.93093 6.49604 1.66733 5.8332 1.66667V2.5C6.27523 2.5 6.69915 2.67559 7.01171 2.98816C7.32427 3.30072 7.49987 3.72464 7.49987 4.16667Z" fill="#24211C"/>
</g>
<defs>
<clipPath id="clip0_4_44">
<rect width="10" height="10" fill="white"/>
</clipPath>
</defs>
</svg>
