<svg width="48" height="24" viewBox="0 0 48 24" fill="none" xmlns="http://www.w3.org/2000/svg">
<g filter="url(#filter0_d_57_207)">
<rect x="2" y="1" width="44" height="20" rx="5" fill="white"/>
<path d="M18.025 7.5H16V5.008L18.025 7.5ZM15.1667 8.5V5H13.0834C12.7519 5 12.4339 5.15804 12.1995 5.43934C11.9651 5.72064 11.8334 6.10218 11.8334 6.5V14.5H18.0834V8.5H15.1667ZM18.9167 8.505V15.519H13.9167V17H20.1667V10L18.9167 8.505Z" fill="#605747"/>
<path d="M26.416 11.032V10.232H24.576V7.736H25.256V8.504H28.272V7.736H28.968V10.232H27.104V11.032H29.936V11.6H23.584V11.032H26.416ZM29.008 12.2V14.608H28.32V12.76H24.52V12.2H29.008ZM25.256 9.688H28.272V9.04H25.256V9.688ZM35.8283 7.568V10.392H36.9643V10.984H35.8283V14.368H35.1323V7.568H35.8283ZM30.2923 12.304L31.5963 10.48C31.7457 10.272 31.847 10.0827 31.9003 9.912C31.9537 9.736 31.9803 9.54933 31.9803 9.352V8.032H32.6443V9.352C32.6443 9.54933 32.671 9.736 32.7243 9.912C32.7777 10.0827 32.879 10.272 33.0283 10.48L34.3323 12.304L33.8203 12.672L32.5163 10.848C32.4417 10.7413 32.375 10.6347 32.3163 10.528C32.231 10.6667 32.1617 10.7733 32.1083 10.848L30.8043 12.672L30.2923 12.304Z" fill="#605747"/>
</g>
<defs>
<filter id="filter0_d_57_207" x="0" y="0" width="48" height="24" filterUnits="userSpaceOnUse" color-interpolation-filters="sRGB">
<feFlood flood-opacity="0" result="BackgroundImageFix"/>
<feColorMatrix in="SourceAlpha" type="matrix" values="0 0 0 0 0 0 0 0 0 0 0 0 0 0 0 0 0 0 127 0" result="hardAlpha"/>
<feOffset dy="1"/>
<feGaussianBlur stdDeviation="1"/>
<feComposite in2="hardAlpha" operator="out"/>
<feColorMatrix type="matrix" values="0 0 0 0 0 0 0 0 0 0 0 0 0 0 0 0 0 0 0.25 0"/>
<feBlend mode="normal" in2="BackgroundImageFix" result="effect1_dropShadow_57_207"/>
<feBlend mode="normal" in="SourceGraphic" in2="effect1_dropShadow_57_207" result="shape"/>
</filter>
</defs>
</svg>
