<svg width="31" height="49" viewBox="0 0 31 49" fill="none" xmlns="http://www.w3.org/2000/svg">
<path d="M5.24225 6.59037C4.36125 5.05661 3.65125 3.03881 4.98125 1.77269C5.97425 0.8281 7.76324 0.802037 9.05824 1.41033C10.3532 2.01862 11.2423 3.1153 11.9673 4.22935C13.3503 6.35403 14.0702 7.60798 14.5582 10.0125C14.1942 7.76179 14.6303 6.52087 15.3613 4.33797C15.6573 3.45421 16.0603 2.56609 16.8013 1.90913C17.5423 1.25131 18.6902 0.872435 19.6902 1.17571C21.2122 1.63801 21.6613 3.32905 21.5703 4.72813C21.3873 7.54539 20.8372 9.75958 18.5042 11.7226C20.3152 10.5591 20.8013 9.46761 22.6413 8.33793C24.4813 7.20824 27.1363 6.66945 28.9233 7.85997C29.2713 8.09199 29.5732 8.3857 29.7442 8.7359C30.1152 9.49453 29.8163 10.3852 29.3113 11.0839C27.3543 13.7873 23.0313 14.2323 19.3783 13.8821C21.3693 13.9168 23.3973 14.2149 25.1353 15.0587C26.8743 15.9025 28.2922 17.3528 28.6252 19.0595C28.7532 19.7182 28.6933 20.4594 28.1783 20.9548C27.2923 21.8064 25.6712 21.4675 24.5172 20.9096C22.1322 19.7564 19.6952 17.9011 18.5602 15.7443C20.3712 18.3713 22.6813 21.3693 21.9713 24.3682C21.7513 25.2962 20.8792 26.3582 19.8452 26.061C19.4512 25.948 19.1643 25.6577 18.9133 25.3718C16.7513 22.9135 15.6462 20.1492 15.9272 17.0652C15.7952 18.7623 15.6143 20.0562 15.3203 21.7377C15.1663 22.618 14.9683 23.5374 14.3253 24.2309C13.6823 24.9243 12.4483 25.2867 11.6033 24.7827C11.0793 24.4707 10.8263 23.9163 10.6673 23.381C9.89925 20.7975 10.4763 18.3 12.5813 16.357C10.9933 18.8336 8.05725 20.0476 4.79425 20.0128C3.80825 20.0024 2.77526 19.832 2.02126 19.2811C0.624257 18.26 0.737258 16.2205 1.89426 14.9935C3.05026 13.7665 4.93325 13.2329 6.75025 13.08C8.24225 12.9549 9.55426 13.2946 10.9263 12.8905C10.1983 12.0172 9.37225 11.5245 8.46425 10.7511C7.09025 9.57969 6.09525 8.07461 5.24225 6.59037Z" stroke="#605747" stroke-width="1.0538" stroke-miterlimit="10" stroke-linecap="round" stroke-linejoin="round"/>
<path d="M18.9792 13.5561C18.9792 11.6712 17.2212 10.1436 15.0522 10.1436C12.8832 10.1436 11.1263 11.6712 11.1263 13.5561C11.1263 15.44 12.8842 16.9677 15.0522 16.9677C17.2212 16.9677 18.9792 15.44 18.9792 13.5561Z" stroke="#605747" stroke-width="0.8162" stroke-miterlimit="10" stroke-linecap="round" stroke-linejoin="round"/>
<path d="M15.7072 20.4351C16.3932 25.2692 15.4192 30.1938 13.6552 34.8177C11.8912 39.4416 9.35525 43.8083 6.82825 48.1567" stroke="#605747" stroke-width="1.0538" stroke-miterlimit="10" stroke-linecap="round" stroke-linejoin="round"/>
<path d="M17.8473 31.3529C19.9243 30.5404 22.3513 30.4266 24.5173 31.0392C24.0813 32.6356 23.0163 34.0972 21.5413 35.1218C20.0663 36.1463 18.1913 36.7268 16.3033 36.7442C14.5293 36.7607 12.6543 36.1115 13.7853 34.4431C14.7013 33.0927 16.2133 31.9917 17.8473 31.3529Z" stroke="#605747" stroke-width="1.0538" stroke-miterlimit="10" stroke-linecap="round" stroke-linejoin="round"/>
<path d="M11.4282 32.8345C10.6292 31.8587 9.52123 31.0974 8.33023 30.4943C7.44123 30.0442 6.47024 29.6697 5.44324 29.6262C5.54324 30.3866 5.78324 31.1278 6.04024 31.8604C6.50624 33.1917 7.04123 34.5317 7.98523 35.6561C8.92923 36.7806 10.3492 37.6757 11.9462 37.7843C12.0962 37.7947 12.2652 37.7913 12.3712 37.6991C12.4502 37.6305 12.4722 37.5279 12.4892 37.4324C12.7752 35.8091 12.5452 34.1989 11.4282 32.8345Z" stroke="#605747" stroke-width="1.0538" stroke-miterlimit="10" stroke-linecap="round" stroke-linejoin="round"/>
<path d="M12.0662 37.5916C11.1862 35.5156 9.80723 33.5995 8.04523 32.0032" stroke="#605747" stroke-width="0.7904" stroke-miterlimit="10" stroke-linecap="round" stroke-linejoin="round"/>
<path d="M13.5903 35.7197C15.9613 34.3311 18.5423 33.2144 21.2463 32.4062" stroke="#605747" stroke-width="0.7904" stroke-miterlimit="10" stroke-linecap="round" stroke-linejoin="round"/>
</svg>
