<svg width="20" height="20" viewBox="0 0 20 20" fill="none" xmlns="http://www.w3.org/2000/svg">
<path d="M11.0594 14.6985C10.4943 15.6138 10.5403 16.6194 10.2555 17.5165C9.56746 19.6844 8.55043 20.3233 6.73333 19.6495C5.05961 19.0288 4.20578 17.0792 4.79655 15.2549C5.14537 14.1793 5.84494 13.3354 6.63924 12.1954C5.26506 12.1255 4.13281 12.1814 3.05241 11.8406C2.60438 11.6993 2.13652 11.6153 1.70512 11.4292C0.517833 10.9156 -0.0652501 10.0065 0.00579524 8.86661C0.0755605 7.74697 0.772566 6.91984 1.9829 6.53286C2.85208 6.25505 3.73343 6.28304 4.6071 6.48178C5.26507 6.63153 5.91278 6.83797 6.55283 7.01571C6.9759 6.64623 6.64308 6.27745 6.58612 5.92477C6.35442 4.49023 6.35315 3.08648 7.07832 1.7961C7.75101 0.598784 8.67075 -0.146485 10.0347 0.0242597C11.446 0.200603 12.2947 1.11941 12.6634 2.55815C12.9866 3.82054 13.1594 5.11302 12.5847 6.67421C13.6254 6.1032 14.3761 5.67005 15.1442 5.27607C15.9987 4.83872 16.8845 4.52241 17.8516 4.62668C19.6009 4.81562 20.4278 6.22706 19.7807 8.01008C19.1906 9.63636 17.9963 10.4705 16.4691 10.7777C15.5526 10.9617 14.6206 10.912 13.4474 10.812C13.9896 11.637 14.5624 12.08 15.1148 12.5383C15.9052 13.1947 16.6528 13.8994 17.2321 14.7881C18.2497 16.3486 18.1672 18.1617 17.0445 19.2723C15.9718 20.3331 14.1726 20.224 12.9124 19.0112C11.9696 18.1036 11.5766 16.8713 11.2617 15.5978C11.1958 15.3297 11.1394 15.0582 11.0594 14.6985Z" fill="#E5DFD3"/>
</svg>
